Marcel Hanoun - Une simple histoire AKA A simple story - 1959 TVRip/Divx

Not my rip/encode, thanks to the original ripper & people who make it possible for this file to survive accross several file sharing networks!

Enjoy!

********************************** File info: ************************************

Complete name                    : Marcel_Hanoun-Une_simple_histoire-AKA-A_simple_story-1959-TVRip.Xvid.avi
Format                           : AVI
Format/Info                      : Audio Video Interleave
File size                        : 667 MiB
Duration                         : 1h 3mn
Overall bit rate                 : 1 470 Kbps

Video
ID                               : 0
Format                           : MPEG-4 Visual
Format settings, BVOP            : No
Format settings, QPel            : No
Format settings, GMC             : No warppoints
Format settings, Matrix          : Default (H.263)
Codec ID                         : DX50
Codec ID/Hint                    : DivX 5
Duration                         : 1h 3mn
Bit rate                         : 1 300 Kbps
Width                            : 352 pixels
Height                           : 264 pixels
Display aspect ratio             : 4:3
Frame rate                       : 25.000 fps
Resolution                       : 8 bits
Colorimetry                      : 4:2:0
Scan type                        : Progressive
Bits/(Pixel*Frame)               : 0.560
Stream size                      : 590 MiB (88%)
Writing library                  : DivX 5.2.1 Beta (UTC 2004-09-08)

Audio
ID                               : 1
Format                           : MPEG Audio
Format version                   : Version 1
Format profile                   : Layer 2
Codec ID                         : 50
Duration                         : 1h 3mn
Bit rate mode                    : Constant
Bit rate                         : 160 Kbps
Channel(s)                       : 2 channels
Sampling rate                    : 48.0 KHz
Stream size                      : 72.6 MiB (11%)
Alignment                        : Split accross interleaves
Interleave, duration             : 40 ms (1.00 video frame)


********************************** FREAKYFLICKS ************************************

FreakyFlicks is a free and open community dedicated to preserving and sharing cinematic 
art in the digital era. Our goal is to disseminate such works of art to the widest 
audience possible through the channels provided by P2P technology.

The FreakyFlicks collection is limited to those films that have played an exceptional 
role in the history of cinema and its progression in becoming a great art. 

Films that are usually described as classic, cult, arthouse and avant-garde.

If you have films that fit this description feel free to share them and participate in 
our community. 

All you need do is include this tag in your upload and join us at the forum to announce 
your release.
 
http://board.freakyflicks.org

'If we all seed just 1:1, 
give at least what we take, 
this torrent will NEVER DIE'